# xmcd CD database file
#
# Track frame offsets:
#	187
#	13860
#	31155
#	56335
#	81247
#	101365
#	117005
#	143440
#
# Disc length: 2168 seconds
#
# Revision: 0
# Processed by: cddbd v1.5.1PL0 Copyright (c) Steve Scherf et al.
# Submitted via: CDex 1.51
#
DISCID=55087608
DTITLE=ヒルビリーバップス - RIP VAN WINKLE
DYEAR=1900
DGENRE=JPop
TTITLE0=G・オーウェルの息子たち
TTITLE1=NOW HERE MAN
TTITLE2=God Bless Your Love
TTITLE3=MONOLOGUE
TTITLE4=Loosin'
TTITLE5=隣人
TTITLE6=I'll Never Stop
TTITLE7=夜間悲航
EXTD=
EXTT0=
EXTT1=
EXTT2=
EXTT3=
EXTT4=
EXTT5=
EXTT6=
EXTT7=
PLAYORDER=
